<svg xmlns="http://www.w3.org/2000/svg" viewBox="0 0 334 380" width="334" height="380">
	<style>
		tspan { white-space:pre }
		.shp0 { fill: none;stroke: #476b93 } 
		.shp1 { fill: none;stroke: #ffffff } 
	</style>
	<g id="фигура" style="opacity: 0.702">
		<path id="Эллипс 1" class="shp0" d="M61.28 0C64.84 0 67.72 2.82 67.72 6.3C67.72 9.77 64.84 12.59 61.28 12.59C57.73 12.59 54.84 9.77 54.84 6.3C54.84 2.82 57.73 0 61.28 0Z" />
		<path id="Эллипс 1" class="shp0" d="M110.69 0C114.24 0 117.12 2.82 117.12 6.3C117.12 9.77 114.24 12.59 110.69 12.59C107.13 12.59 104.25 9.77 104.25 6.3C104.25 2.82 107.13 0 110.69 0Z" />
		<path id="Эллипс 1" class="shp0" d="M161.91 0C165.43 0 168.28 2.82 168.28 6.3C168.28 9.77 165.43 12.59 161.91 12.59C158.39 12.59 155.53 9.77 155.53 6.3C155.53 2.82 158.39 0 161.91 0Z" />
		<path id="Эллипс 1" class="shp0" d="M211.36 0C214.87 0 217.72 2.82 217.72 6.3C217.72 9.77 214.87 12.59 211.36 12.59C207.85 12.59 205 9.77 205 6.3C205 2.82 207.85 0 211.36 0Z" />
		<path id="Эллипс 1" class="shp0" d="M262.55 0C266.08 0 268.94 2.82 268.94 6.3C268.94 9.77 266.08 12.59 262.55 12.59C259.02 12.59 256.16 9.77 256.16 6.3C256.16 2.82 259.02 0 262.55 0Z" />
		<path id="Эллипс 1" class="shp0" d="M43 48.78C46.54 48.78 49.41 51.63 49.41 55.14C49.41 58.65 46.54 61.5 43 61.5C39.46 61.5 36.59 58.65 36.59 55.14C36.59 51.63 39.46 48.78 43 48.78Z" />
		<path id="Эллипс 1" class="shp0" d="M92.42 48.78C95.97 48.78 98.84 51.63 98.84 55.14C98.84 58.65 95.97 61.5 92.42 61.5C88.88 61.5 86 58.65 86 55.14C86 51.63 88.88 48.78 92.42 48.78Z" />
		<path id="Эллипс 1" class="shp1" d="M143.62 48.78C147.15 48.78 150 51.63 150 55.14C150 58.65 147.15 61.5 143.62 61.5C140.1 61.5 137.25 58.65 137.25 55.14C137.25 51.63 140.1 48.78 143.62 48.78Z" />
		<path id="Эллипс 1" class="shp0" d="M193.03 48.78C196.55 48.78 199.41 51.63 199.41 55.14C199.41 58.65 196.55 61.5 193.03 61.5C189.51 61.5 186.66 58.65 186.66 55.14C186.66 51.63 189.51 48.78 193.03 48.78Z" />
		<path id="Эллипс 1" class="shp0" d="M244.25 48.78C247.81 48.78 250.69 51.63 250.69 55.14C250.69 58.65 247.81 61.5 244.25 61.5C240.69 61.5 237.81 58.65 237.81 55.14C237.81 51.63 240.69 48.78 244.25 48.78Z" />
		<path id="Эллипс 1" class="shp0" d="M24.7 97.59C28.25 97.59 31.13 100.43 31.13 103.94C31.13 107.44 28.25 110.28 24.7 110.28C21.16 110.28 18.28 107.44 18.28 103.94C18.28 100.43 21.16 97.59 24.7 97.59Z" />
		<path id="Эллипс 1" class="shp0" d="M74.13 97.59C77.66 97.59 80.53 100.43 80.53 103.94C80.53 107.44 77.66 110.28 74.13 110.28C70.59 110.28 67.72 107.44 67.72 103.94C67.72 100.43 70.59 97.59 74.13 97.59Z" />
		<path id="Эллипс 1" class="shp0" d="M125.34 97.59C128.88 97.59 131.75 100.43 131.75 103.94C131.75 107.44 128.88 110.28 125.34 110.28C121.81 110.28 118.94 107.44 118.94 103.94C118.94 100.43 121.81 97.59 125.34 97.59Z" />
		<path id="Эллипс 1" class="shp0" d="M174.7 97.59C178.25 97.59 181.12 100.43 181.12 103.94C181.12 107.44 178.25 110.28 174.7 110.28C171.16 110.28 168.28 107.44 168.28 103.94C168.28 100.43 171.16 97.59 174.7 97.59Z" />
		<path id="Эллипс 1" class="shp0" d="M225.98 97.59C229.53 97.59 232.41 100.43 232.41 103.94C232.41 107.44 229.53 110.28 225.98 110.28C222.44 110.28 219.56 107.44 219.56 103.94C219.56 100.43 222.44 97.59 225.98 97.59Z" />
		<path id="Эллипс 1" class="shp0" d="M6.44 146.44C9.99 146.44 12.87 149.26 12.87 152.73C12.87 156.21 9.99 159.03 6.44 159.03C2.88 159.03 0 156.21 0 152.73C0 149.26 2.88 146.44 6.44 146.44Z" />
		<path id="Эллипс 1" class="shp0" d="M55.83 146.44C59.37 146.44 62.25 149.26 62.25 152.73C62.25 156.21 59.37 159.03 55.83 159.03C52.28 159.03 49.41 156.21 49.41 152.73C49.41 149.26 52.28 146.44 55.83 146.44Z" />
		<path id="Эллипс 1" class="shp0" d="M107.05 146.44C110.56 146.44 113.41 149.26 113.41 152.73C113.41 156.21 110.56 159.03 107.05 159.03C103.53 159.03 100.69 156.21 100.69 152.73C100.69 149.26 103.53 146.44 107.05 146.44Z" />
		<path id="Эллипс 1" class="shp0" d="M156.44 146.44C159.99 146.44 162.87 149.26 162.87 152.73C162.87 156.21 159.99 159.03 156.44 159.03C152.88 159.03 150 156.21 150 152.73C150 149.26 152.88 146.44 156.44 146.44Z" />
		<path id="Эллипс 1" class="shp0" d="M207.69 146.44C211.23 146.44 214.09 149.26 214.09 152.73C214.09 156.21 211.23 159.03 207.69 159.03C204.15 159.03 201.28 156.21 201.28 152.73C201.28 149.26 204.15 146.44 207.69 146.44Z" />
		<path id="Эллипс 1" class="shp0" d="M126.31 220.97C129.85 220.97 132.72 223.79 132.72 227.27C132.72 230.74 129.85 233.56 126.31 233.56C122.77 233.56 119.91 230.74 119.91 227.27C119.91 223.79 122.77 220.97 126.31 220.97Z" />
		<path id="Эллипс 1" class="shp0" d="M175.73 220.97C179.28 220.97 182.16 223.79 182.16 227.27C182.16 230.74 179.28 233.56 175.73 233.56C172.19 233.56 169.31 230.74 169.31 227.27C169.31 223.79 172.19 220.97 175.73 220.97Z" />
		<path id="Эллипс 1" class="shp0" d="M226.95 220.97C230.47 220.97 233.31 223.79 233.31 227.27C233.31 230.74 230.47 233.56 226.95 233.56C223.44 233.56 220.59 230.74 220.59 227.27C220.59 223.79 223.44 220.97 226.95 220.97Z" />
		<path id="Эллипс 1" class="shp0" d="M276.34 220.97C279.86 220.97 282.72 223.79 282.72 227.27C282.72 230.74 279.86 233.56 276.34 233.56C272.82 233.56 269.97 230.74 269.97 227.27C269.97 223.79 272.82 220.97 276.34 220.97Z" />
		<path id="Эллипс 1" class="shp0" d="M327.56 220.97C331.12 220.97 334 223.79 334 227.27C334 230.74 331.12 233.56 327.56 233.56C324.01 233.56 321.13 230.74 321.13 227.27C321.13 223.79 324.01 220.97 327.56 220.97Z" />
		<path id="Эллипс 1" class="shp0" d="M108.02 269.72C111.56 269.72 114.44 272.56 114.44 276.06C114.44 279.57 111.56 282.41 108.02 282.41C104.47 282.41 101.59 279.57 101.59 276.06C101.59 272.56 104.47 269.72 108.02 269.72Z" />
		<path id="Эллипс 1" class="shp0" d="M157.44 269.72C160.98 269.72 163.84 272.56 163.84 276.06C163.84 279.57 160.98 282.41 157.44 282.41C153.9 282.41 151.03 279.57 151.03 276.06C151.03 272.56 153.9 269.72 157.44 269.72Z" />
		<path id="Эллипс 1" class="shp0" d="M208.66 269.72C212.19 269.72 215.06 272.56 215.06 276.06C215.06 279.57 212.19 282.41 208.66 282.41C205.12 282.41 202.25 279.57 202.25 276.06C202.25 272.56 205.12 269.72 208.66 269.72Z" />
		<path id="Эллипс 1" class="shp0" d="M258.09 269.72C261.61 269.72 264.47 272.56 264.47 276.06C264.47 279.57 261.61 282.41 258.09 282.41C254.57 282.41 251.72 279.57 251.72 276.06C251.72 272.56 254.57 269.72 258.09 269.72Z" />
		<path id="Эллипс 1" class="shp0" d="M309.3 269.72C312.84 269.72 315.72 272.56 315.72 276.06C315.72 279.57 312.84 282.41 309.3 282.41C305.75 282.41 302.88 279.57 302.88 276.06C302.88 272.56 305.75 269.72 309.3 269.72Z" />
		<path id="Эллипс 1" class="shp0" d="M89.75 318.5C93.31 318.5 96.19 321.35 96.19 324.86C96.19 328.37 93.31 331.22 89.75 331.22C86.19 331.22 83.31 328.37 83.31 324.86C83.31 321.35 86.19 318.5 89.75 318.5Z" />
		<path id="Эллипс 1" class="shp0" d="M139.16 318.5C142.71 318.5 145.59 321.35 145.59 324.86C145.59 328.37 142.71 331.22 139.16 331.22C135.6 331.22 132.72 328.37 132.72 324.86C132.72 321.35 135.6 318.5 139.16 318.5Z" />
		<path id="Эллипс 1" class="shp1" d="M190.38 318.5C193.9 318.5 196.75 321.35 196.75 324.86C196.75 328.37 193.9 331.22 190.38 331.22C186.85 331.22 184 328.37 184 324.86C184 321.35 186.85 318.5 190.38 318.5Z" />
		<path id="Эллипс 1" class="shp0" d="M239.72 318.5C243.26 318.5 246.13 321.35 246.13 324.86C246.13 328.37 243.26 331.22 239.72 331.22C236.18 331.22 233.31 328.37 233.31 324.86C233.31 321.35 236.18 318.5 239.72 318.5Z" />
		<path id="Эллипс 1" class="shp0" d="M291 318.5C294.54 318.5 297.41 321.35 297.41 324.86C297.41 328.37 294.54 331.22 291 331.22C287.46 331.22 284.59 328.37 284.59 324.86C284.59 321.35 287.46 318.5 291 318.5Z" />
		<path id="Эллипс 1" class="shp0" d="M71.45 367.41C74.98 367.41 77.84 370.23 77.84 373.7C77.84 377.18 74.98 380 71.45 380C67.92 380 65.06 377.18 65.06 373.7C65.06 370.23 67.92 367.41 71.45 367.41Z" />
		<path id="Эллипс 1" class="shp0" d="M120.84 367.41C124.38 367.41 127.25 370.23 127.25 373.7C127.25 377.18 124.38 380 120.84 380C117.31 380 114.44 377.18 114.44 373.7C114.44 370.23 117.31 367.41 120.84 367.41Z" />
		<path id="Эллипс 1" class="shp0" d="M172.09 367.41C175.61 367.41 178.47 370.23 178.47 373.7C178.47 377.18 175.61 380 172.09 380C168.57 380 165.72 377.18 165.72 373.7C165.72 370.23 168.57 367.41 172.09 367.41Z" />
		<path id="Эллипс 1" class="shp0" d="M221.47 367.41C225.01 367.41 227.88 370.23 227.88 373.7C227.88 377.18 225.01 380 221.47 380C217.93 380 215.06 377.18 215.06 373.7C215.06 370.23 217.93 367.41 221.47 367.41Z" />
		<path id="Эллипс 1" class="shp0" d="M272.72 367.41C276.27 367.41 279.16 370.23 279.16 373.7C279.16 377.18 276.27 380 272.72 380C269.16 380 266.28 377.18 266.28 373.7C266.28 370.23 269.16 367.41 272.72 367.41Z" />
	</g>
</svg>