<svg xmlns="http://www.w3.org/2000/svg" viewBox="0 0 215 360" width="215" height="360">
	<style>
		tspan { white-space:pre }
		.shp0 { fill: none;stroke: #476b93 } 
	</style>
	<g id="фигура" style="opacity: 0.702">
		<path id="Эллипс 1" class="shp0" d="M207.72 0C211.27 0 214.16 2.82 214.16 6.3C214.16 9.77 211.27 12.59 207.72 12.59C204.16 12.59 201.28 9.77 201.28 6.3C201.28 2.82 204.16 0 207.72 0Z" />
		<path id="Эллипс 1" class="shp0" d="M158.31 0C161.87 0 164.75 2.82 164.75 6.3C164.75 9.77 161.87 12.59 158.31 12.59C154.76 12.59 151.87 9.77 151.87 6.3C151.87 2.82 154.76 0 158.31 0Z" />
		<path id="Эллипс 1" class="shp0" d="M107.09 0C110.61 0 113.47 2.82 113.47 6.3C113.47 9.77 110.61 12.59 107.09 12.59C103.57 12.59 100.72 9.77 100.72 6.3C100.72 2.82 103.57 0 107.09 0Z" />
		<path id="Эллипс 1" class="shp0" d="M57.64 0C61.15 0 64 2.82 64 6.3C64 9.77 61.15 12.59 57.64 12.59C54.13 12.59 51.28 9.77 51.28 6.3C51.28 2.82 54.13 0 57.64 0Z" />
		<path id="Эллипс 1" class="shp0" d="M6.45 0C9.98 0 12.84 2.82 12.84 6.3C12.84 9.77 9.98 12.59 6.45 12.59C2.92 12.59 0.06 9.77 0.06 6.3C0.06 2.82 2.92 0 6.45 0Z" />
		<path id="Эллипс 1" class="shp0" d="M207.72 43C211.27 43 214.16 45.82 214.16 49.3C214.16 52.77 211.27 55.59 207.72 55.59C204.16 55.59 201.28 52.77 201.28 49.3C201.28 45.82 204.16 43 207.72 43Z" />
		<path id="Эллипс 1" class="shp0" d="M158.31 43C161.87 43 164.75 45.82 164.75 49.3C164.75 52.77 161.87 55.59 158.31 55.59C154.76 55.59 151.87 52.77 151.87 49.3C151.87 45.82 154.76 43 158.31 43Z" />
		<path id="Эллипс 1" class="shp0" d="M107.09 43C110.61 43 113.47 45.82 113.47 49.3C113.47 52.77 110.61 55.59 107.09 55.59C103.57 55.59 100.72 52.77 100.72 49.3C100.72 45.82 103.57 43 107.09 43Z" />
		<path id="Эллипс 1" class="shp0" d="M57.64 43C61.15 43 64 45.82 64 49.3C64 52.77 61.15 55.59 57.64 55.59C54.13 55.59 51.28 52.77 51.28 49.3C51.28 45.82 54.13 43 57.64 43Z" />
		<path id="Эллипс 1" class="shp0" d="M6.45 43C9.98 43 12.84 45.82 12.84 49.3C12.84 52.77 9.98 55.59 6.45 55.59C2.92 55.59 0.06 52.77 0.06 49.3C0.06 45.82 2.92 43 6.45 43Z" />
		<path id="Эллипс 1" class="shp0" d="M207.72 86C211.27 86 214.16 88.82 214.16 92.3C214.16 95.77 211.27 98.59 207.72 98.59C204.16 98.59 201.28 95.77 201.28 92.3C201.28 88.82 204.16 86 207.72 86Z" />
		<path id="Эллипс 1" class="shp0" d="M158.31 86C161.87 86 164.75 88.82 164.75 92.3C164.75 95.77 161.87 98.59 158.31 98.59C154.76 98.59 151.87 95.77 151.87 92.3C151.87 88.82 154.76 86 158.31 86Z" />
		<path id="Эллипс 1" class="shp0" d="M107.09 86C110.61 86 113.47 88.82 113.47 92.3C113.47 95.77 110.61 98.59 107.09 98.59C103.57 98.59 100.72 95.77 100.72 92.3C100.72 88.82 103.57 86 107.09 86Z" />
		<path id="Эллипс 1" class="shp0" d="M57.64 86C61.15 86 64 88.82 64 92.3C64 95.77 61.15 98.59 57.64 98.59C54.13 98.59 51.28 95.77 51.28 92.3C51.28 88.82 54.13 86 57.64 86Z" />
		<path id="Эллипс 1" class="shp0" d="M6.45 86C9.98 86 12.84 88.82 12.84 92.3C12.84 95.77 9.98 98.59 6.45 98.59C2.92 98.59 0.06 95.77 0.06 92.3C0.06 88.82 2.92 86 6.45 86Z" />
		<path id="Эллипс 1" class="shp0" d="M207.72 130C211.27 130 214.16 132.82 214.16 136.3C214.16 139.77 211.27 142.59 207.72 142.59C204.16 142.59 201.28 139.77 201.28 136.3C201.28 132.82 204.16 130 207.72 130Z" />
		<path id="Эллипс 1" class="shp0" d="M158.31 130C161.87 130 164.75 132.82 164.75 136.3C164.75 139.77 161.87 142.59 158.31 142.59C154.76 142.59 151.87 139.77 151.87 136.3C151.87 132.82 154.76 130 158.31 130Z" />
		<path id="Эллипс 1" class="shp0" d="M107.09 130C110.61 130 113.47 132.82 113.47 136.3C113.47 139.77 110.61 142.59 107.09 142.59C103.57 142.59 100.72 139.77 100.72 136.3C100.72 132.82 103.57 130 107.09 130Z" />
		<path id="Эллипс 1" class="shp0" d="M57.64 130C61.15 130 64 132.82 64 136.3C64 139.77 61.15 142.59 57.64 142.59C54.13 142.59 51.28 139.77 51.28 136.3C51.28 132.82 54.13 130 57.64 130Z" />
		<path id="Эллипс 1" class="shp0" d="M6.45 130C9.98 130 12.84 132.82 12.84 136.3C12.84 139.77 9.98 142.59 6.45 142.59C2.92 142.59 0.06 139.77 0.06 136.3C0.06 132.82 2.92 130 6.45 130Z" />
		<path id="Эллипс 1" class="shp0" d="M207.72 173C211.27 173 214.16 175.82 214.16 179.3C214.16 182.77 211.27 185.59 207.72 185.59C204.16 185.59 201.28 182.77 201.28 179.3C201.28 175.82 204.16 173 207.72 173Z" />
		<path id="Эллипс 1" class="shp0" d="M158.31 173C161.87 173 164.75 175.82 164.75 179.3C164.75 182.77 161.87 185.59 158.31 185.59C154.76 185.59 151.87 182.77 151.87 179.3C151.87 175.82 154.76 173 158.31 173Z" />
		<path id="Эллипс 1" class="shp0" d="M107.09 173C110.61 173 113.47 175.82 113.47 179.3C113.47 182.77 110.61 185.59 107.09 185.59C103.57 185.59 100.72 182.77 100.72 179.3C100.72 175.82 103.57 173 107.09 173Z" />
		<path id="Эллипс 1" class="shp0" d="M57.64 173C61.15 173 64 175.82 64 179.3C64 182.77 61.15 185.59 57.64 185.59C54.13 185.59 51.28 182.77 51.28 179.3C51.28 175.82 54.13 173 57.64 173Z" />
		<path id="Эллипс 1" class="shp0" d="M6.45 173C9.98 173 12.84 175.82 12.84 179.3C12.84 182.77 9.98 185.59 6.45 185.59C2.92 185.59 0.06 182.77 0.06 179.3C0.06 175.82 2.92 173 6.45 173Z" />
		<path id="Эллипс 1" class="shp0" d="M207.72 216C211.27 216 214.16 218.82 214.16 222.3C214.16 225.77 211.27 228.59 207.72 228.59C204.16 228.59 201.28 225.77 201.28 222.3C201.28 218.82 204.16 216 207.72 216Z" />
		<path id="Эллипс 1" class="shp0" d="M158.31 216C161.87 216 164.75 218.82 164.75 222.3C164.75 225.77 161.87 228.59 158.31 228.59C154.76 228.59 151.87 225.77 151.87 222.3C151.87 218.82 154.76 216 158.31 216Z" />
		<path id="Эллипс 1" class="shp0" d="M107.09 216C110.61 216 113.47 218.82 113.47 222.3C113.47 225.77 110.61 228.59 107.09 228.59C103.57 228.59 100.72 225.77 100.72 222.3C100.72 218.82 103.57 216 107.09 216Z" />
		<path id="Эллипс 1" class="shp0" d="M57.64 216C61.15 216 64 218.82 64 222.3C64 225.77 61.15 228.59 57.64 228.59C54.13 228.59 51.28 225.77 51.28 222.3C51.28 218.82 54.13 216 57.64 216Z" />
		<path id="Эллипс 1" class="shp0" d="M6.45 216C9.98 216 12.84 218.82 12.84 222.3C12.84 225.77 9.98 228.59 6.45 228.59C2.92 228.59 0.06 225.77 0.06 222.3C0.06 218.82 2.92 216 6.45 216Z" />
		<path id="Эллипс 1" class="shp0" d="M207.72 261C211.27 261 214.16 263.82 214.16 267.3C214.16 270.77 211.27 273.59 207.72 273.59C204.16 273.59 201.28 270.77 201.28 267.3C201.28 263.82 204.16 261 207.72 261Z" />
		<path id="Эллипс 1" class="shp0" d="M158.31 261C161.87 261 164.75 263.82 164.75 267.3C164.75 270.77 161.87 273.59 158.31 273.59C154.76 273.59 151.87 270.77 151.87 267.3C151.87 263.82 154.76 261 158.31 261Z" />
		<path id="Эллипс 1" class="shp0" d="M107.09 261C110.61 261 113.47 263.82 113.47 267.3C113.47 270.77 110.61 273.59 107.09 273.59C103.57 273.59 100.72 270.77 100.72 267.3C100.72 263.82 103.57 261 107.09 261Z" />
		<path id="Эллипс 1" class="shp0" d="M57.64 261C61.15 261 64 263.82 64 267.3C64 270.77 61.15 273.59 57.64 273.59C54.13 273.59 51.28 270.77 51.28 267.3C51.28 263.82 54.13 261 57.64 261Z" />
		<path id="Эллипс 1" class="shp0" d="M6.45 261C9.98 261 12.84 263.82 12.84 267.3C12.84 270.77 9.98 273.59 6.45 273.59C2.92 273.59 0.06 270.77 0.06 267.3C0.06 263.82 2.92 261 6.45 261Z" />
		<path id="Эллипс 1" class="shp0" d="M207.72 304C211.27 304 214.16 306.82 214.16 310.3C214.16 313.77 211.27 316.59 207.72 316.59C204.16 316.59 201.28 313.77 201.28 310.3C201.28 306.82 204.16 304 207.72 304Z" />
		<path id="Эллипс 1" class="shp0" d="M158.31 304C161.87 304 164.75 306.82 164.75 310.3C164.75 313.77 161.87 316.59 158.31 316.59C154.76 316.59 151.87 313.77 151.87 310.3C151.87 306.82 154.76 304 158.31 304Z" />
		<path id="Эллипс 1" class="shp0" d="M107.09 304C110.61 304 113.47 306.82 113.47 310.3C113.47 313.77 110.61 316.59 107.09 316.59C103.57 316.59 100.72 313.77 100.72 310.3C100.72 306.82 103.57 304 107.09 304Z" />
		<path id="Эллипс 1" class="shp0" d="M57.64 304C61.15 304 64 306.82 64 310.3C64 313.77 61.15 316.59 57.64 316.59C54.13 316.59 51.28 313.77 51.28 310.3C51.28 306.82 54.13 304 57.64 304Z" />
		<path id="Эллипс 1" class="shp0" d="M6.45 304C9.98 304 12.84 306.82 12.84 310.3C12.84 313.77 9.98 316.59 6.45 316.59C2.92 316.59 0.06 313.77 0.06 310.3C0.06 306.82 2.92 304 6.45 304Z" />
		<path id="Эллипс 1" class="shp0" d="M207.72 347C211.27 347 214.16 349.82 214.16 353.3C214.16 356.77 211.27 359.59 207.72 359.59C204.16 359.59 201.28 356.77 201.28 353.3C201.28 349.82 204.16 347 207.72 347Z" />
		<path id="Эллипс 1" class="shp0" d="M158.31 347C161.87 347 164.75 349.82 164.75 353.3C164.75 356.77 161.87 359.59 158.31 359.59C154.76 359.59 151.87 356.77 151.87 353.3C151.87 349.82 154.76 347 158.31 347Z" />
		<path id="Эллипс 1" class="shp0" d="M107.09 347C110.61 347 113.47 349.82 113.47 353.3C113.47 356.77 110.61 359.59 107.09 359.59C103.57 359.59 100.72 356.77 100.72 353.3C100.72 349.82 103.57 347 107.09 347Z" />
		<path id="Эллипс 1" class="shp0" d="M57.64 347C61.15 347 64 349.82 64 353.3C64 356.77 61.15 359.59 57.64 359.59C54.13 359.59 51.28 356.77 51.28 353.3C51.28 349.82 54.13 347 57.64 347Z" />
		<path id="Эллипс 1" class="shp0" d="M6.45 347C9.98 347 12.84 349.82 12.84 353.3C12.84 356.77 9.98 359.59 6.45 359.59C2.92 359.59 0.06 356.77 0.06 353.3C0.06 349.82 2.92 347 6.45 347Z" />
	</g>
</svg>