<svg xmlns="http://www.w3.org/2000/svg" viewBox="0 0 217 362" width="217" height="362">
	<style>
		tspan { white-space:pre }
		.shp0 { fill: none;stroke: #c6c9cc } 
	</style>
	<g id="фигура" style="opacity: 0.702">
		<path id="Эллипс 1" class="shp0" d="M208.72 1C212.27 1 215.16 3.82 215.16 7.3C215.16 10.77 212.27 13.59 208.72 13.59C205.16 13.59 202.28 10.77 202.28 7.3C202.28 3.82 205.16 1 208.72 1Z" />
		<path id="Эллипс 1" class="shp0" d="M159.31 1C162.87 1 165.75 3.82 165.75 7.3C165.75 10.77 162.87 13.59 159.31 13.59C155.76 13.59 152.88 10.77 152.88 7.3C152.88 3.82 155.76 1 159.31 1Z" />
		<path id="Эллипс 1" class="shp0" d="M108.09 1C111.61 1 114.47 3.82 114.47 7.3C114.47 10.77 111.61 13.59 108.09 13.59C104.57 13.59 101.72 10.77 101.72 7.3C101.72 3.82 104.57 1 108.09 1Z" />
		<path id="Эллипс 1" class="shp0" d="M58.64 1C62.15 1 65 3.82 65 7.3C65 10.77 62.15 13.59 58.64 13.59C55.13 13.59 52.28 10.77 52.28 7.3C52.28 3.82 55.13 1 58.64 1Z" />
		<path id="Эллипс 1" class="shp0" d="M7.45 1C10.98 1 13.84 3.82 13.84 7.3C13.84 10.77 10.98 13.59 7.45 13.59C3.92 13.59 1.06 10.77 1.06 7.3C1.06 3.82 3.92 1 7.45 1Z" />
		<path id="Эллипс 1" class="shp0" d="M208.72 44C212.27 44 215.16 46.82 215.16 50.3C215.16 53.77 212.27 56.59 208.72 56.59C205.16 56.59 202.28 53.77 202.28 50.3C202.28 46.82 205.16 44 208.72 44Z" />
		<path id="Эллипс 1" class="shp0" d="M159.31 44C162.87 44 165.75 46.82 165.75 50.3C165.75 53.77 162.87 56.59 159.31 56.59C155.76 56.59 152.88 53.77 152.88 50.3C152.88 46.82 155.76 44 159.31 44Z" />
		<path id="Эллипс 1" class="shp0" d="M108.09 44C111.61 44 114.47 46.82 114.47 50.3C114.47 53.77 111.61 56.59 108.09 56.59C104.57 56.59 101.72 53.77 101.72 50.3C101.72 46.82 104.57 44 108.09 44Z" />
		<path id="Эллипс 1" class="shp0" d="M58.64 44C62.15 44 65 46.82 65 50.3C65 53.77 62.15 56.59 58.64 56.59C55.13 56.59 52.28 53.77 52.28 50.3C52.28 46.82 55.13 44 58.64 44Z" />
		<path id="Эллипс 1" class="shp0" d="M7.45 44C10.98 44 13.84 46.82 13.84 50.3C13.84 53.77 10.98 56.59 7.45 56.59C3.92 56.59 1.06 53.77 1.06 50.3C1.06 46.82 3.92 44 7.45 44Z" />
		<path id="Эллипс 1" class="shp0" d="M208.72 87C212.27 87 215.16 89.82 215.16 93.3C215.16 96.77 212.27 99.59 208.72 99.59C205.16 99.59 202.28 96.77 202.28 93.3C202.28 89.82 205.16 87 208.72 87Z" />
		<path id="Эллипс 1" class="shp0" d="M159.31 87C162.87 87 165.75 89.82 165.75 93.3C165.75 96.77 162.87 99.59 159.31 99.59C155.76 99.59 152.88 96.77 152.88 93.3C152.88 89.82 155.76 87 159.31 87Z" />
		<path id="Эллипс 1" class="shp0" d="M108.09 87C111.61 87 114.47 89.82 114.47 93.3C114.47 96.77 111.61 99.59 108.09 99.59C104.57 99.59 101.72 96.77 101.72 93.3C101.72 89.82 104.57 87 108.09 87Z" />
		<path id="Эллипс 1" class="shp0" d="M58.64 87C62.15 87 65 89.82 65 93.3C65 96.77 62.15 99.59 58.64 99.59C55.13 99.59 52.28 96.77 52.28 93.3C52.28 89.82 55.13 87 58.64 87Z" />
		<path id="Эллипс 1" class="shp0" d="M7.45 87C10.98 87 13.84 89.82 13.84 93.3C13.84 96.77 10.98 99.59 7.45 99.59C3.92 99.59 1.06 96.77 1.06 93.3C1.06 89.82 3.92 87 7.45 87Z" />
		<path id="Эллипс 1" class="shp0" d="M208.72 131C212.27 131 215.16 133.82 215.16 137.3C215.16 140.77 212.27 143.59 208.72 143.59C205.16 143.59 202.28 140.77 202.28 137.3C202.28 133.82 205.16 131 208.72 131Z" />
		<path id="Эллипс 1" class="shp0" d="M159.31 131C162.87 131 165.75 133.82 165.75 137.3C165.75 140.77 162.87 143.59 159.31 143.59C155.76 143.59 152.88 140.77 152.88 137.3C152.88 133.82 155.76 131 159.31 131Z" />
		<path id="Эллипс 1" class="shp0" d="M108.09 131C111.61 131 114.47 133.82 114.47 137.3C114.47 140.77 111.61 143.59 108.09 143.59C104.57 143.59 101.72 140.77 101.72 137.3C101.72 133.82 104.57 131 108.09 131Z" />
		<path id="Эллипс 1" class="shp0" d="M58.64 131C62.15 131 65 133.82 65 137.3C65 140.77 62.15 143.59 58.64 143.59C55.13 143.59 52.28 140.77 52.28 137.3C52.28 133.82 55.13 131 58.64 131Z" />
		<path id="Эллипс 1" class="shp0" d="M7.45 131C10.98 131 13.84 133.82 13.84 137.3C13.84 140.77 10.98 143.59 7.45 143.59C3.92 143.59 1.06 140.77 1.06 137.3C1.06 133.82 3.92 131 7.45 131Z" />
		<path id="Эллипс 1" class="shp0" d="M208.72 174C212.27 174 215.16 176.82 215.16 180.3C215.16 183.77 212.27 186.59 208.72 186.59C205.16 186.59 202.28 183.77 202.28 180.3C202.28 176.82 205.16 174 208.72 174Z" />
		<path id="Эллипс 1" class="shp0" d="M159.31 174C162.87 174 165.75 176.82 165.75 180.3C165.75 183.77 162.87 186.59 159.31 186.59C155.76 186.59 152.88 183.77 152.88 180.3C152.88 176.82 155.76 174 159.31 174Z" />
		<path id="Эллипс 1" class="shp0" d="M108.09 174C111.61 174 114.47 176.82 114.47 180.3C114.47 183.77 111.61 186.59 108.09 186.59C104.57 186.59 101.72 183.77 101.72 180.3C101.72 176.82 104.57 174 108.09 174Z" />
		<path id="Эллипс 1" class="shp0" d="M58.64 174C62.15 174 65 176.82 65 180.3C65 183.77 62.15 186.59 58.64 186.59C55.13 186.59 52.28 183.77 52.28 180.3C52.28 176.82 55.13 174 58.64 174Z" />
		<path id="Эллипс 1" class="shp0" d="M7.45 174C10.98 174 13.84 176.82 13.84 180.3C13.84 183.77 10.98 186.59 7.45 186.59C3.92 186.59 1.06 183.77 1.06 180.3C1.06 176.82 3.92 174 7.45 174Z" />
		<path id="Эллипс 1" class="shp0" d="M208.72 217C212.27 217 215.16 219.82 215.16 223.3C215.16 226.77 212.27 229.59 208.72 229.59C205.16 229.59 202.28 226.77 202.28 223.3C202.28 219.82 205.16 217 208.72 217Z" />
		<path id="Эллипс 1" class="shp0" d="M159.31 217C162.87 217 165.75 219.82 165.75 223.3C165.75 226.77 162.87 229.59 159.31 229.59C155.76 229.59 152.88 226.77 152.88 223.3C152.88 219.82 155.76 217 159.31 217Z" />
		<path id="Эллипс 1" class="shp0" d="M108.09 217C111.61 217 114.47 219.82 114.47 223.3C114.47 226.77 111.61 229.59 108.09 229.59C104.57 229.59 101.72 226.77 101.72 223.3C101.72 219.82 104.57 217 108.09 217Z" />
		<path id="Эллипс 1" class="shp0" d="M58.64 217C62.15 217 65 219.82 65 223.3C65 226.77 62.15 229.59 58.64 229.59C55.13 229.59 52.28 226.77 52.28 223.3C52.28 219.82 55.13 217 58.64 217Z" />
		<path id="Эллипс 1" class="shp0" d="M7.45 217C10.98 217 13.84 219.82 13.84 223.3C13.84 226.77 10.98 229.59 7.45 229.59C3.92 229.59 1.06 226.77 1.06 223.3C1.06 219.82 3.92 217 7.45 217Z" />
		<path id="Эллипс 1" class="shp0" d="M208.72 262C212.27 262 215.16 264.82 215.16 268.3C215.16 271.77 212.27 274.59 208.72 274.59C205.16 274.59 202.28 271.77 202.28 268.3C202.28 264.82 205.16 262 208.72 262Z" />
		<path id="Эллипс 1" class="shp0" d="M159.31 262C162.87 262 165.75 264.82 165.75 268.3C165.75 271.77 162.87 274.59 159.31 274.59C155.76 274.59 152.88 271.77 152.88 268.3C152.88 264.82 155.76 262 159.31 262Z" />
		<path id="Эллипс 1" class="shp0" d="M108.09 262C111.61 262 114.47 264.82 114.47 268.3C114.47 271.77 111.61 274.59 108.09 274.59C104.57 274.59 101.72 271.77 101.72 268.3C101.72 264.82 104.57 262 108.09 262Z" />
		<path id="Эллипс 1" class="shp0" d="M58.64 262C62.15 262 65 264.82 65 268.3C65 271.77 62.15 274.59 58.64 274.59C55.13 274.59 52.28 271.77 52.28 268.3C52.28 264.82 55.13 262 58.64 262Z" />
		<path id="Эллипс 1" class="shp0" d="M7.45 262C10.98 262 13.84 264.82 13.84 268.3C13.84 271.77 10.98 274.59 7.45 274.59C3.92 274.59 1.06 271.77 1.06 268.3C1.06 264.82 3.92 262 7.45 262Z" />
		<path id="Эллипс 1" class="shp0" d="M208.72 305C212.27 305 215.16 307.82 215.16 311.3C215.16 314.77 212.27 317.59 208.72 317.59C205.16 317.59 202.28 314.77 202.28 311.3C202.28 307.82 205.16 305 208.72 305Z" />
		<path id="Эллипс 1" class="shp0" d="M159.31 305C162.87 305 165.75 307.82 165.75 311.3C165.75 314.77 162.87 317.59 159.31 317.59C155.76 317.59 152.88 314.77 152.88 311.3C152.88 307.82 155.76 305 159.31 305Z" />
		<path id="Эллипс 1" class="shp0" d="M108.09 305C111.61 305 114.47 307.82 114.47 311.3C114.47 314.77 111.61 317.59 108.09 317.59C104.57 317.59 101.72 314.77 101.72 311.3C101.72 307.82 104.57 305 108.09 305Z" />
		<path id="Эллипс 1" class="shp0" d="M58.64 305C62.15 305 65 307.82 65 311.3C65 314.77 62.15 317.59 58.64 317.59C55.13 317.59 52.28 314.77 52.28 311.3C52.28 307.82 55.13 305 58.64 305Z" />
		<path id="Эллипс 1" class="shp0" d="M7.45 305C10.98 305 13.84 307.82 13.84 311.3C13.84 314.77 10.98 317.59 7.45 317.59C3.92 317.59 1.06 314.77 1.06 311.3C1.06 307.82 3.92 305 7.45 305Z" />
		<path id="Эллипс 1" class="shp0" d="M208.72 348C212.27 348 215.16 350.82 215.16 354.3C215.16 357.77 212.27 360.59 208.72 360.59C205.16 360.59 202.28 357.77 202.28 354.3C202.28 350.82 205.16 348 208.72 348Z" />
		<path id="Эллипс 1" class="shp0" d="M159.31 348C162.87 348 165.75 350.82 165.75 354.3C165.75 357.77 162.87 360.59 159.31 360.59C155.76 360.59 152.88 357.77 152.88 354.3C152.88 350.82 155.76 348 159.31 348Z" />
		<path id="Эллипс 1" class="shp0" d="M108.09 348C111.61 348 114.47 350.82 114.47 354.3C114.47 357.77 111.61 360.59 108.09 360.59C104.57 360.59 101.72 357.77 101.72 354.3C101.72 350.82 104.57 348 108.09 348Z" />
		<path id="Эллипс 1" class="shp0" d="M58.64 348C62.15 348 65 350.82 65 354.3C65 357.77 62.15 360.59 58.64 360.59C55.13 360.59 52.28 357.77 52.28 354.3C52.28 350.82 55.13 348 58.64 348Z" />
		<path id="Эллипс 1" class="shp0" d="M7.45 348C10.98 348 13.84 350.82 13.84 354.3C13.84 357.77 10.98 360.59 7.45 360.59C3.92 360.59 1.06 357.77 1.06 354.3C1.06 350.82 3.92 348 7.45 348Z" />
	</g>
</svg>